<svg width="150" height="75" viewBox="0 0 150 75" fill="none" xmlns="http://www.w3.org/2000/svg">
<g clip-path="url(#clip0_48_640)">
<path d="M31.4867 18.75C21.0494 18.75 12.75 27.1773 12.75 37.4427C12.75 47.8206 21.0494 56.25 31.4867 56.25C41.979 56.25 50.1672 47.8221 50.1672 37.446C50.1689 27.1806 41.979 18.75 31.4867 18.75ZM31.4867 26.6845C40.0088 26.6845 46.2519 32.0366 48.89 37.446C46.2519 42.938 40.0088 48.3155 31.4867 48.3155C22.9095 48.3155 16.7165 42.9362 14.0801 37.446C16.7165 32.0384 22.9113 26.6878 31.4867 26.6878V26.6845ZM31.4867 27.5352C25.935 27.5352 21.4087 31.9789 21.4087 37.4427C21.4087 42.9892 25.935 47.4091 31.4867 47.4091C37.0384 47.4091 41.5052 42.9889 41.5052 37.446C41.5052 31.9821 37.0384 27.5352 31.4867 27.5352Z" fill="white" fill-opacity="0.15"/>
<path d="M68.08 20.9749C58.2806 20.9749 51.4509 28.3314 51.4509 37.2791V37.3871C51.4509 46.4455 58.4197 53.6128 67.8319 53.6128C73.9663 53.6128 77.6316 51.4429 80.9076 47.9555L76.4376 43.5122C73.938 45.761 71.6869 47.2194 68.0503 47.2194C62.582 47.2194 58.7795 42.685 58.7795 37.2791V37.1973C58.7795 31.7897 62.6655 27.3683 68.0503 27.3683C71.2427 27.3683 73.7414 28.7138 76.2126 30.938L80.6826 25.8305C77.7122 22.9492 74.1043 20.9749 68.08 20.9749Z" fill="white" fill-opacity="0.15"/>
<path d="M83.551 21.5214V53.0598H98.7343C105.922 53.0598 110.668 50.1811 110.668 44.4186V44.3073C110.668 40.0803 108.395 37.9643 104.7 36.5659C106.977 35.3044 108.892 33.3284 108.892 29.7602V29.6784C108.892 27.5069 108.169 25.7507 106.698 24.296C104.868 22.5128 102.009 21.5214 98.3703 21.5214H83.551ZM90.3767 27.5876H97.3182C100.289 27.5876 101.924 28.7678 101.924 30.8268V30.9381C101.924 33.2712 99.954 34.2591 96.8451 34.2591L90.3767 34.2624V27.5876ZM90.3767 40.0276H98.5126C102.091 40.0276 103.701 41.3464 103.701 43.4599V43.5679C103.701 45.901 101.815 46.9707 98.7343 46.9707L90.3767 46.974V40.0276Z" fill="white" fill-opacity="0.15"/>
<path d="M124.429 21.0567C117.934 21.0567 113.272 24.8437 113.272 30.5781V30.6632C113.272 36.9247 117.433 38.6826 123.847 40.3024C129.176 41.6728 130.285 42.5504 130.285 44.3073V44.4185C130.285 46.2562 128.535 47.3829 125.676 47.3829C122.011 47.3829 119.014 45.8977 116.154 43.5646L111.992 48.479C115.822 51.8558 120.707 53.5048 125.537 53.5048V53.5015C132.422 53.5015 137.25 49.9859 137.25 43.7314V43.6496C137.25 38.133 133.587 35.8498 127.119 34.1773C121.624 32.7753 120.234 32.0908 120.234 30.0317V29.9499C120.234 28.4126 121.65 27.1785 124.343 27.1785C127.036 27.1785 129.813 28.3567 132.644 30.3033L136.281 25.0649C133.06 22.5121 129.092 21.0567 124.429 21.0567Z" fill="white" fill-opacity="0.15"/>
</g>
<defs>
<clipPath id="clip0_48_640">
<rect width="124.5" height="37.5" fill="white" transform="translate(12.75 18.75)"/>
</clipPath>
</defs>
</svg>
