<svg width="560" height="434" viewBox="0 0 560 434" fill="none" xmlns="http://www.w3.org/2000/svg">
<g clip-path="url(#clip0_2022_103)">
<rect width="560" height="434" fill="white"/>
<path opacity="0.5" d="M4.284 39.168C3.65867 39.168 3.094 39.056 2.59 38.832C2.09533 38.5987 1.694 38.272 1.386 37.852C1.078 37.4227 0.886667 36.9233 0.812 36.354H1.96C2.072 36.8953 2.33333 37.334 2.744 37.67C3.15467 37.9967 3.67267 38.16 4.298 38.16C4.76467 38.16 5.166 38.0527 5.502 37.838C5.838 37.6233 6.09467 37.3293 6.272 36.956C6.45867 36.5827 6.552 36.1627 6.552 35.696C6.552 34.968 6.34667 34.38 5.936 33.932C5.52533 33.484 4.99333 33.26 4.34 33.26C3.79867 33.26 3.33667 33.3813 2.954 33.624C2.57133 33.8667 2.29133 34.184 2.114 34.576H0.994L1.834 29.2H6.972V30.222H2.744L2.17 33.204C2.394 32.9333 2.702 32.7093 3.094 32.532C3.49533 32.3547 3.95267 32.266 4.466 32.266C5.11 32.266 5.67 32.4153 6.146 32.714C6.63133 33.0127 7.00933 33.4187 7.28 33.932C7.41067 34.1933 7.50867 34.4687 7.574 34.758C7.64867 35.0473 7.686 35.3553 7.686 35.682C7.686 36.3633 7.54133 36.9653 7.252 37.488C6.972 38.0107 6.57533 38.4213 6.062 38.72C5.558 39.0187 4.96533 39.168 4.284 39.168ZM12.6085 39.168C11.7125 39.168 10.9939 38.944 10.4525 38.496C9.9112 38.048 9.5192 37.4413 9.27653 36.676C9.03386 35.9107 8.91253 35.052 8.91253 34.1C8.91253 33.148 9.03386 32.2893 9.27653 31.524C9.5192 30.7587 9.9112 30.152 10.4525 29.704C10.9939 29.256 11.7125 29.032 12.6085 29.032C13.5045 29.032 14.2185 29.2513 14.7505 29.69C15.2919 30.1287 15.6839 30.7307 15.9265 31.496C16.1692 32.2613 16.2905 33.1293 16.2905 34.1C16.2905 35.0707 16.1692 35.9387 15.9265 36.704C15.6839 37.4693 15.2919 38.0713 14.7505 38.51C14.2185 38.9487 13.5045 39.168 12.6085 39.168ZM12.6085 38.118C13.4672 38.118 14.0925 37.7587 14.4845 37.04C14.8859 36.3213 15.0865 35.3413 15.0865 34.1C15.0865 32.8587 14.8859 31.8787 14.4845 31.16C14.0925 30.4413 13.4672 30.082 12.6085 30.082C11.7592 30.082 11.1292 30.4413 10.7185 31.16C10.3172 31.8787 10.1165 32.8587 10.1165 34.1C10.1165 35.3413 10.3172 36.3213 10.7185 37.04C11.1292 37.7587 11.7592 38.118 12.6085 38.118ZM21.0031 39.168C20.1071 39.168 19.3884 38.944 18.8471 38.496C18.3057 38.048 17.9137 37.4413 17.6711 36.676C17.4284 35.9107 17.3071 35.052 17.3071 34.1C17.3071 33.148 17.4284 32.2893 17.6711 31.524C17.9137 30.7587 18.3057 30.152 18.8471 29.704C19.3884 29.256 20.1071 29.032 21.0031 29.032C21.8991 29.032 22.6131 29.2513 23.1451 29.69C23.6864 30.1287 24.0784 30.7307 24.3211 31.496C24.5637 32.2613 24.6851 33.1293 24.6851 34.1C24.6851 35.0707 24.5637 35.9387 24.3211 36.704C24.0784 37.4693 23.6864 38.0713 23.1451 38.51C22.6131 38.9487 21.8991 39.168 21.0031 39.168ZM21.0031 38.118C21.8617 38.118 22.4871 37.7587 22.8791 37.04C23.2804 36.3213 23.4811 35.3413 23.4811 34.1C23.4811 32.8587 23.2804 31.8787 22.8791 31.16C22.4871 30.4413 21.8617 30.082 21.0031 30.082C20.1537 30.082 19.5237 30.4413 19.1131 31.16C18.7117 31.8787 18.5111 32.8587 18.5111 34.1C18.5111 35.3413 18.7117 36.3213 19.1131 37.04C19.5237 37.7587 20.1537 38.118 21.0031 38.118ZM29.3976 39.168C28.5016 39.168 27.7829 38.944 27.2416 38.496C26.7003 38.048 26.3083 37.4413 26.0656 36.676C25.8229 35.9107 25.7016 35.052 25.7016 34.1C25.7016 33.148 25.8229 32.2893 26.0656 31.524C26.3083 30.7587 26.7003 30.152 27.2416 29.704C27.7829 29.256 28.5016 29.032 29.3976 29.032C30.2936 29.032 31.0076 29.2513 31.5396 29.69C32.0809 30.1287 32.4729 30.7307 32.7156 31.496C32.9583 32.2613 33.0796 33.1293 33.0796 34.1C33.0796 35.0707 32.9583 35.9387 32.7156 36.704C32.4729 37.4693 32.0809 38.0713 31.5396 38.51C31.0076 38.9487 30.2936 39.168 29.3976 39.168ZM29.3976 38.118C30.2563 38.118 30.8816 37.7587 31.2736 37.04C31.6749 36.3213 31.8756 35.3413 31.8756 34.1C31.8756 32.8587 31.6749 31.8787 31.2736 31.16C30.8816 30.4413 30.2563 30.082 29.3976 30.082C28.5483 30.082 27.9183 30.4413 27.5076 31.16C27.1063 31.8787 26.9056 32.8587 26.9056 34.1C26.9056 35.3413 27.1063 36.3213 27.5076 37.04C27.9183 37.7587 28.5483 38.118 29.3976 38.118Z" fill="black"/>
<path d="M50 34H560" stroke="black" stroke-opacity="0.1"/>
<path opacity="0.5" d="M5.404 112.2V110.1H0.588V109.19L3.99 102.4H5.152L1.834 109.064H5.46V106.278H6.566V109.064H7.994V110.1H6.566V112.2H5.404ZM12.6085 112.368C11.7125 112.368 10.9939 112.144 10.4525 111.696C9.9112 111.248 9.5192 110.641 9.27653 109.876C9.03386 109.111 8.91253 108.252 8.91253 107.3C8.91253 106.348 9.03386 105.489 9.27653 104.724C9.5192 103.959 9.9112 103.352 10.4525 102.904C10.9939 102.456 11.7125 102.232 12.6085 102.232C13.5045 102.232 14.2185 102.451 14.7505 102.89C15.2919 103.329 15.6839 103.931 15.9265 104.696C16.1692 105.461 16.2905 106.329 16.2905 107.3C16.2905 108.271 16.1692 109.139 15.9265 109.904C15.6839 110.669 15.2919 111.271 14.7505 111.71C14.2185 112.149 13.5045 112.368 12.6085 112.368ZM12.6085 111.318C13.4672 111.318 14.0925 110.959 14.4845 110.24C14.8859 109.521 15.0865 108.541 15.0865 107.3C15.0865 106.059 14.8859 105.079 14.4845 104.36C14.0925 103.641 13.4672 103.282 12.6085 103.282C11.7592 103.282 11.1292 103.641 10.7185 104.36C10.3172 105.079 10.1165 106.059 10.1165 107.3C10.1165 108.541 10.3172 109.521 10.7185 110.24C11.1292 110.959 11.7592 111.318 12.6085 111.318ZM21.0031 112.368C20.1071 112.368 19.3884 112.144 18.8471 111.696C18.3057 111.248 17.9137 110.641 17.6711 109.876C17.4284 109.111 17.3071 108.252 17.3071 107.3C17.3071 106.348 17.4284 105.489 17.6711 104.724C17.9137 103.959 18.3057 103.352 18.8471 102.904C19.3884 102.456 20.1071 102.232 21.0031 102.232C21.8991 102.232 22.6131 102.451 23.1451 102.89C23.6864 103.329 24.0784 103.931 24.3211 104.696C24.5637 105.461 24.6851 106.329 24.6851 107.3C24.6851 108.271 24.5637 109.139 24.3211 109.904C24.0784 110.669 23.6864 111.271 23.1451 111.71C22.6131 112.149 21.8991 112.368 21.0031 112.368ZM21.0031 111.318C21.8617 111.318 22.4871 110.959 22.8791 110.24C23.2804 109.521 23.4811 108.541 23.4811 107.3C23.4811 106.059 23.2804 105.079 22.8791 104.36C22.4871 103.641 21.8617 103.282 21.0031 103.282C20.1537 103.282 19.5237 103.641 19.1131 104.36C18.7117 105.079 18.5111 106.059 18.5111 107.3C18.5111 108.541 18.7117 109.521 19.1131 110.24C19.5237 110.959 20.1537 111.318 21.0031 111.318ZM29.3976 112.368C28.5016 112.368 27.7829 112.144 27.2416 111.696C26.7003 111.248 26.3083 110.641 26.0656 109.876C25.8229 109.111 25.7016 108.252 25.7016 107.3C25.7016 106.348 25.8229 105.489 26.0656 104.724C26.3083 103.959 26.7003 103.352 27.2416 102.904C27.7829 102.456 28.5016 102.232 29.3976 102.232C30.2936 102.232 31.0076 102.451 31.5396 102.89C32.0809 103.329 32.4729 103.931 32.7156 104.696C32.9583 105.461 33.0796 106.329 33.0796 107.3C33.0796 108.271 32.9583 109.139 32.7156 109.904C32.4729 110.669 32.0809 111.271 31.5396 111.71C31.0076 112.149 30.2936 112.368 29.3976 112.368ZM29.3976 111.318C30.2563 111.318 30.8816 110.959 31.2736 110.24C31.6749 109.521 31.8756 108.541 31.8756 107.3C31.8756 106.059 31.6749 105.079 31.2736 104.36C30.8816 103.641 30.2563 103.282 29.3976 103.282C28.5483 103.282 27.9183 103.641 27.5076 104.36C27.1063 105.079 26.9056 106.059 26.9056 107.3C26.9056 108.541 27.1063 109.521 27.5076 110.24C27.9183 110.959 28.5483 111.318 29.3976 111.318Z" fill="black"/>
<path d="M50 107.2H560" stroke="black" stroke-opacity="0.1"/>
<path opacity="0.5" d="M4.242 185.568C3.598 185.568 3.02867 185.456 2.534 185.232C2.03933 184.999 1.638 184.672 1.33 184.252C1.03133 183.823 0.849333 183.319 0.784 182.74H1.918C2.03933 183.253 2.29133 183.687 2.674 184.042C3.05667 184.387 3.57933 184.56 4.242 184.56C4.96067 184.56 5.51133 184.359 5.894 183.958C6.286 183.557 6.482 183.048 6.482 182.432C6.482 181.769 6.27667 181.265 5.866 180.92C5.46467 180.575 4.928 180.402 4.256 180.402C4.07867 180.402 3.90133 180.425 3.724 180.472C3.54667 180.519 3.374 180.593 3.206 180.696L2.478 179.87L5.852 176.566H1.19V175.6H7.294V176.524L4.242 179.534C4.662 179.487 5.07267 179.52 5.474 179.632C5.87533 179.735 6.23467 179.907 6.552 180.15C6.87867 180.393 7.13533 180.705 7.322 181.088C7.518 181.471 7.616 181.914 7.616 182.418C7.616 183.081 7.47133 183.65 7.182 184.126C6.902 184.593 6.51 184.952 6.006 185.204C5.502 185.447 4.914 185.568 4.242 185.568ZM12.6085 185.568C11.7125 185.568 10.9939 185.344 10.4525 184.896C9.9112 184.448 9.5192 183.841 9.27653 183.076C9.03386 182.311 8.91253 181.452 8.91253 180.5C8.91253 179.548 9.03386 178.689 9.27653 177.924C9.5192 177.159 9.9112 176.552 10.4525 176.104C10.9939 175.656 11.7125 175.432 12.6085 175.432C13.5045 175.432 14.2185 175.651 14.7505 176.09C15.2919 176.529 15.6839 177.131 15.9265 177.896C16.1692 178.661 16.2905 179.529 16.2905 180.5C16.2905 181.471 16.1692 182.339 15.9265 183.104C15.6839 183.869 15.2919 184.471 14.7505 184.91C14.2185 185.349 13.5045 185.568 12.6085 185.568ZM12.6085 184.518C13.4672 184.518 14.0925 184.159 14.4845 183.44C14.8859 182.721 15.0865 181.741 15.0865 180.5C15.0865 179.259 14.8859 178.279 14.4845 177.56C14.0925 176.841 13.4672 176.482 12.6085 176.482C11.7592 176.482 11.1292 176.841 10.7185 177.56C10.3172 178.279 10.1165 179.259 10.1165 180.5C10.1165 181.741 10.3172 182.721 10.7185 183.44C11.1292 184.159 11.7592 184.518 12.6085 184.518ZM21.0031 185.568C20.1071 185.568 19.3884 185.344 18.8471 184.896C18.3057 184.448 17.9137 183.841 17.6711 183.076C17.4284 182.311 17.3071 181.452 17.3071 180.5C17.3071 179.548 17.4284 178.689 17.6711 177.924C17.9137 177.159 18.3057 176.552 18.8471 176.104C19.3884 175.656 20.1071 175.432 21.0031 175.432C21.8991 175.432 22.6131 175.651 23.1451 176.09C23.6864 176.529 24.0784 177.131 24.3211 177.896C24.5637 178.661 24.6851 179.529 24.6851 180.5C24.6851 181.471 24.5637 182.339 24.3211 183.104C24.0784 183.869 23.6864 184.471 23.1451 184.91C22.6131 185.349 21.8991 185.568 21.0031 185.568ZM21.0031 184.518C21.8617 184.518 22.4871 184.159 22.8791 183.44C23.2804 182.721 23.4811 181.741 23.4811 180.5C23.4811 179.259 23.2804 178.279 22.8791 177.56C22.4871 176.841 21.8617 176.482 21.0031 176.482C20.1537 176.482 19.5237 176.841 19.1131 177.56C18.7117 178.279 18.5111 179.259 18.5111 180.5C18.5111 181.741 18.7117 182.721 19.1131 183.44C19.5237 184.159 20.1537 184.518 21.0031 184.518ZM29.3976 185.568C28.5016 185.568 27.7829 185.344 27.2416 184.896C26.7003 184.448 26.3083 183.841 26.0656 183.076C25.8229 182.311 25.7016 181.452 25.7016 180.5C25.7016 179.548 25.8229 178.689 26.0656 177.924C26.3083 177.159 26.7003 176.552 27.2416 176.104C27.7829 175.656 28.5016 175.432 29.3976 175.432C30.2936 175.432 31.0076 175.651 31.5396 176.09C32.0809 176.529 32.4729 177.131 32.7156 177.896C32.9583 178.661 33.0796 179.529 33.0796 180.5C33.0796 181.471 32.9583 182.339 32.7156 183.104C32.4729 183.869 32.0809 184.471 31.5396 184.91C31.0076 185.349 30.2936 185.568 29.3976 185.568ZM29.3976 184.518C30.2563 184.518 30.8816 184.159 31.2736 183.44C31.6749 182.721 31.8756 181.741 31.8756 180.5C31.8756 179.259 31.6749 178.279 31.2736 177.56C30.8816 176.841 30.2563 176.482 29.3976 176.482C28.5483 176.482 27.9183 176.841 27.5076 177.56C27.1063 178.279 26.9056 179.259 26.9056 180.5C26.9056 181.741 27.1063 182.721 27.5076 183.44C27.9183 184.159 28.5483 184.518 29.3976 184.518Z" fill="black"/>
<path d="M50 180.4H560" stroke="black" stroke-opacity="0.1"/>
<path opacity="0.5" d="M1.022 258.6V257.578C1.022 257.578 1.092 257.503 1.232 257.354C1.38133 257.195 1.57733 256.995 1.82 256.752C2.06267 256.509 2.31933 256.243 2.59 255.954C2.87 255.665 3.14533 255.38 3.416 255.1C3.68667 254.82 3.92467 254.573 4.13 254.358C4.47533 254.003 4.78333 253.672 5.054 253.364C5.334 253.056 5.558 252.757 5.726 252.468C5.894 252.179 5.978 251.889 5.978 251.6C5.978 251.021 5.83333 250.55 5.544 250.186C5.264 249.822 4.80667 249.64 4.172 249.64C3.77067 249.64 3.42067 249.733 3.122 249.92C2.83267 250.097 2.60867 250.34 2.45 250.648C2.30067 250.956 2.226 251.311 2.226 251.712H1.092C1.092 251.087 1.218 250.545 1.47 250.088C1.73133 249.631 2.09533 249.276 2.562 249.024C3.02867 248.763 3.57 248.632 4.186 248.632C4.79267 248.632 5.31533 248.744 5.754 248.968C6.202 249.183 6.54733 249.509 6.79 249.948C7.03267 250.377 7.154 250.914 7.154 251.558C7.154 251.997 7.04667 252.407 6.832 252.79C6.61733 253.173 6.36067 253.523 6.062 253.84C5.76333 254.157 5.488 254.447 5.236 254.708C5.08667 254.857 4.89067 255.053 4.648 255.296C4.41467 255.539 4.16733 255.795 3.906 256.066C3.654 256.327 3.41133 256.579 3.178 256.822C2.954 257.055 2.76733 257.247 2.618 257.396C2.478 257.545 2.408 257.62 2.408 257.62H7.49V258.6H1.022ZM12.6085 258.768C11.7125 258.768 10.9939 258.544 10.4525 258.096C9.9112 257.648 9.5192 257.041 9.27653 256.276C9.03386 255.511 8.91253 254.652 8.91253 253.7C8.91253 252.748 9.03386 251.889 9.27653 251.124C9.5192 250.359 9.9112 249.752 10.4525 249.304C10.9939 248.856 11.7125 248.632 12.6085 248.632C13.5045 248.632 14.2185 248.851 14.7505 249.29C15.2919 249.729 15.6839 250.331 15.9265 251.096C16.1692 251.861 16.2905 252.729 16.2905 253.7C16.2905 254.671 16.1692 255.539 15.9265 256.304C15.6839 257.069 15.2919 257.671 14.7505 258.11C14.2185 258.549 13.5045 258.768 12.6085 258.768ZM12.6085 257.718C13.4672 257.718 14.0925 257.359 14.4845 256.64C14.8859 255.921 15.0865 254.941 15.0865 253.7C15.0865 252.459 14.8859 251.479 14.4845 250.76C14.0925 250.041 13.4672 249.682 12.6085 249.682C11.7592 249.682 11.1292 250.041 10.7185 250.76C10.3172 251.479 10.1165 252.459 10.1165 253.7C10.1165 254.941 10.3172 255.921 10.7185 256.64C11.1292 257.359 11.7592 257.718 12.6085 257.718ZM21.0031 258.768C20.1071 258.768 19.3884 258.544 18.8471 258.096C18.3057 257.648 17.9137 257.041 17.6711 256.276C17.4284 255.511 17.3071 254.652 17.3071 253.7C17.3071 252.748 17.4284 251.889 17.6711 251.124C17.9137 250.359 18.3057 249.752 18.8471 249.304C19.3884 248.856 20.1071 248.632 21.0031 248.632C21.8991 248.632 22.6131 248.851 23.1451 249.29C23.6864 249.729 24.0784 250.331 24.3211 251.096C24.5637 251.861 24.6851 252.729 24.6851 253.7C24.6851 254.671 24.5637 255.539 24.3211 256.304C24.0784 257.069 23.6864 257.671 23.1451 258.11C22.6131 258.549 21.8991 258.768 21.0031 258.768ZM21.0031 257.718C21.8617 257.718 22.4871 257.359 22.8791 256.64C23.2804 255.921 23.4811 254.941 23.4811 253.7C23.4811 252.459 23.2804 251.479 22.8791 250.76C22.4871 250.041 21.8617 249.682 21.0031 249.682C20.1537 249.682 19.5237 250.041 19.1131 250.76C18.7117 251.479 18.5111 252.459 18.5111 253.7C18.5111 254.941 18.7117 255.921 19.1131 256.64C19.5237 257.359 20.1537 257.718 21.0031 257.718ZM29.3976 258.768C28.5016 258.768 27.7829 258.544 27.2416 258.096C26.7003 257.648 26.3083 257.041 26.0656 256.276C25.8229 255.511 25.7016 254.652 25.7016 253.7C25.7016 252.748 25.8229 251.889 26.0656 251.124C26.3083 250.359 26.7003 249.752 27.2416 249.304C27.7829 248.856 28.5016 248.632 29.3976 248.632C30.2936 248.632 31.0076 248.851 31.5396 249.29C32.0809 249.729 32.4729 250.331 32.7156 251.096C32.9583 251.861 33.0796 252.729 33.0796 253.7C33.0796 254.671 32.9583 255.539 32.7156 256.304C32.4729 257.069 32.0809 257.671 31.5396 258.11C31.0076 258.549 30.2936 258.768 29.3976 258.768ZM29.3976 257.718C30.2563 257.718 30.8816 257.359 31.2736 256.64C31.6749 255.921 31.8756 254.941 31.8756 253.7C31.8756 252.459 31.6749 251.479 31.2736 250.76C30.8816 250.041 30.2563 249.682 29.3976 249.682C28.5483 249.682 27.9183 250.041 27.5076 250.76C27.1063 251.479 26.9056 252.459 26.9056 253.7C26.9056 254.941 27.1063 255.921 27.5076 256.64C27.9183 257.359 28.5483 257.718 29.3976 257.718Z" fill="black"/>
<path d="M50 253.6H560" stroke="black" stroke-opacity="0.1"/>
<path opacity="0.5" d="M1.246 331.8V330.834H4.256V323.344L1.288 324.142V323.316L4.774 322H5.39V330.834H7.882V331.8H1.246ZM12.6085 331.968C11.7125 331.968 10.9939 331.744 10.4525 331.296C9.9112 330.848 9.5192 330.241 9.27653 329.476C9.03386 328.711 8.91253 327.852 8.91253 326.9C8.91253 325.948 9.03386 325.089 9.27653 324.324C9.5192 323.559 9.9112 322.952 10.4525 322.504C10.9939 322.056 11.7125 321.832 12.6085 321.832C13.5045 321.832 14.2185 322.051 14.7505 322.49C15.2919 322.929 15.6839 323.531 15.9265 324.296C16.1692 325.061 16.2905 325.929 16.2905 326.9C16.2905 327.871 16.1692 328.739 15.9265 329.504C15.6839 330.269 15.2919 330.871 14.7505 331.31C14.2185 331.749 13.5045 331.968 12.6085 331.968ZM12.6085 330.918C13.4672 330.918 14.0925 330.559 14.4845 329.84C14.8859 329.121 15.0865 328.141 15.0865 326.9C15.0865 325.659 14.8859 324.679 14.4845 323.96C14.0925 323.241 13.4672 322.882 12.6085 322.882C11.7592 322.882 11.1292 323.241 10.7185 323.96C10.3172 324.679 10.1165 325.659 10.1165 326.9C10.1165 328.141 10.3172 329.121 10.7185 329.84C11.1292 330.559 11.7592 330.918 12.6085 330.918ZM21.0031 331.968C20.1071 331.968 19.3884 331.744 18.8471 331.296C18.3057 330.848 17.9137 330.241 17.6711 329.476C17.4284 328.711 17.3071 327.852 17.3071 326.9C17.3071 325.948 17.4284 325.089 17.6711 324.324C17.9137 323.559 18.3057 322.952 18.8471 322.504C19.3884 322.056 20.1071 321.832 21.0031 321.832C21.8991 321.832 22.6131 322.051 23.1451 322.49C23.6864 322.929 24.0784 323.531 24.3211 324.296C24.5637 325.061 24.6851 325.929 24.6851 326.9C24.6851 327.871 24.5637 328.739 24.3211 329.504C24.0784 330.269 23.6864 330.871 23.1451 331.31C22.6131 331.749 21.8991 331.968 21.0031 331.968ZM21.0031 330.918C21.8617 330.918 22.4871 330.559 22.8791 329.84C23.2804 329.121 23.4811 328.141 23.4811 326.9C23.4811 325.659 23.2804 324.679 22.8791 323.96C22.4871 323.241 21.8617 322.882 21.0031 322.882C20.1537 322.882 19.5237 323.241 19.1131 323.96C18.7117 324.679 18.5111 325.659 18.5111 326.9C18.5111 328.141 18.7117 329.121 19.1131 329.84C19.5237 330.559 20.1537 330.918 21.0031 330.918ZM29.3976 331.968C28.5016 331.968 27.7829 331.744 27.2416 331.296C26.7003 330.848 26.3083 330.241 26.0656 329.476C25.8229 328.711 25.7016 327.852 25.7016 326.9C25.7016 325.948 25.8229 325.089 26.0656 324.324C26.3083 323.559 26.7003 322.952 27.2416 322.504C27.7829 322.056 28.5016 321.832 29.3976 321.832C30.2936 321.832 31.0076 322.051 31.5396 322.49C32.0809 322.929 32.4729 323.531 32.7156 324.296C32.9583 325.061 33.0796 325.929 33.0796 326.9C33.0796 327.871 32.9583 328.739 32.7156 329.504C32.4729 330.269 32.0809 330.871 31.5396 331.31C31.0076 331.749 30.2936 331.968 29.3976 331.968ZM29.3976 330.918C30.2563 330.918 30.8816 330.559 31.2736 329.84C31.6749 329.121 31.8756 328.141 31.8756 326.9C31.8756 325.659 31.6749 324.679 31.2736 323.96C30.8816 323.241 30.2563 322.882 29.3976 322.882C28.5483 322.882 27.9183 323.241 27.5076 323.96C27.1063 324.679 26.9056 325.659 26.9056 326.9C26.9056 328.141 27.1063 329.121 27.5076 329.84C27.9183 330.559 28.5483 330.918 29.3976 330.918Z" fill="black"/>
<path d="M50 326.8H560" stroke="black" stroke-opacity="0.1"/>
<path opacity="0.5" d="M29.8195 405.168C28.9235 405.168 28.2048 404.944 27.6635 404.496C27.1221 404.048 26.7301 403.441 26.4875 402.676C26.2448 401.911 26.1235 401.052 26.1235 400.1C26.1235 399.148 26.2448 398.289 26.4875 397.524C26.7301 396.759 27.1221 396.152 27.6635 395.704C28.2048 395.256 28.9235 395.032 29.8195 395.032C30.7155 395.032 31.4295 395.251 31.9615 395.69C32.5028 396.129 32.8948 396.731 33.1375 397.496C33.3801 398.261 33.5015 399.129 33.5015 400.1C33.5015 401.071 33.3801 401.939 33.1375 402.704C32.8948 403.469 32.5028 404.071 31.9615 404.51C31.4295 404.949 30.7155 405.168 29.8195 405.168ZM29.8195 404.118C30.6781 404.118 31.3035 403.759 31.6955 403.04C32.0968 402.321 32.2975 401.341 32.2975 400.1C32.2975 398.859 32.0968 397.879 31.6955 397.16C31.3035 396.441 30.6781 396.082 29.8195 396.082C28.9701 396.082 28.3401 396.441 27.9295 397.16C27.5281 397.879 27.3275 398.859 27.3275 400.1C27.3275 401.341 27.5281 402.321 27.9295 403.04C28.3401 403.759 28.9701 404.118 29.8195 404.118Z" fill="black"/>
<path d="M50 400H560" stroke="black" stroke-opacity="0.1"/>
<path d="M121 360L121 335L71 335L71 360L121 360ZM121 384L121 360L71 360L71 384L121 384Z" fill="#04CBF8"/>
<path d="M96 400L96 384" stroke="#212121" stroke-width="50"/>
<path opacity="0.5" d="M89.1591 430V429.034H92.1691V421.544L89.2011 422.342V421.516L92.6871 420.2H93.3031V429.034H95.7951V430H89.1591ZM98.0296 433.08L99.5696 429.72L96.5876 423.056H97.8616L100.158 428.46L102.594 423.056H103.812L99.2616 433.08H98.0296Z" fill="black"/>
<path d="M223 310L223 285L173 285L173 310L223 310ZM223 359L223 310L173 310L173 359L223 359Z" fill="#04CBF8"/>
<path d="M198 400L198 359" stroke="#212121" stroke-width="50"/>
<path opacity="0.5" d="M190.935 430V428.978C190.935 428.978 191.005 428.903 191.145 428.754C191.294 428.595 191.49 428.395 191.733 428.152C191.976 427.909 192.232 427.643 192.503 427.354C192.783 427.065 193.058 426.78 193.329 426.5C193.6 426.22 193.838 425.973 194.043 425.758C194.388 425.403 194.696 425.072 194.967 424.764C195.247 424.456 195.471 424.157 195.639 423.868C195.807 423.579 195.891 423.289 195.891 423C195.891 422.421 195.746 421.95 195.457 421.586C195.177 421.222 194.72 421.04 194.085 421.04C193.684 421.04 193.334 421.133 193.035 421.32C192.746 421.497 192.522 421.74 192.363 422.048C192.214 422.356 192.139 422.711 192.139 423.112H191.005C191.005 422.487 191.131 421.945 191.383 421.488C191.644 421.031 192.008 420.676 192.475 420.424C192.942 420.163 193.483 420.032 194.099 420.032C194.706 420.032 195.228 420.144 195.667 420.368C196.115 420.583 196.46 420.909 196.703 421.348C196.946 421.777 197.067 422.314 197.067 422.958C197.067 423.397 196.96 423.807 196.745 424.19C196.53 424.573 196.274 424.923 195.975 425.24C195.676 425.557 195.401 425.847 195.149 426.108C195 426.257 194.804 426.453 194.561 426.696C194.328 426.939 194.08 427.195 193.819 427.466C193.567 427.727 193.324 427.979 193.091 428.222C192.867 428.455 192.68 428.647 192.531 428.796C192.391 428.945 192.321 429.02 192.321 429.02H197.403V430H190.935ZM200.03 433.08L201.57 429.72L198.588 423.056H199.862L202.158 428.46L204.594 423.056H205.812L201.262 433.08H200.03Z" fill="black"/>
<path d="M325 236L325 211L275 211L275 236L325 236ZM325 333L325 236L275 236L275 333L325 333Z" fill="#04CBF8"/>
<path d="M300 400L300 333" stroke="#212121" stroke-width="50"/>
<path opacity="0.5" d="M296.155 430.168C295.511 430.168 294.942 430.056 294.447 429.832C293.952 429.599 293.551 429.272 293.243 428.852C292.944 428.423 292.762 427.919 292.697 427.34H293.831C293.952 427.853 294.204 428.287 294.587 428.642C294.97 428.987 295.492 429.16 296.155 429.16C296.874 429.16 297.424 428.959 297.807 428.558C298.199 428.157 298.395 427.648 298.395 427.032C298.395 426.369 298.19 425.865 297.779 425.52C297.378 425.175 296.841 425.002 296.169 425.002C295.992 425.002 295.814 425.025 295.637 425.072C295.46 425.119 295.287 425.193 295.119 425.296L294.391 424.47L297.765 421.166H293.103V420.2H299.207V421.124L296.155 424.134C296.575 424.087 296.986 424.12 297.387 424.232C297.788 424.335 298.148 424.507 298.465 424.75C298.792 424.993 299.048 425.305 299.235 425.688C299.431 426.071 299.529 426.514 299.529 427.018C299.529 427.681 299.384 428.25 299.095 428.726C298.815 429.193 298.423 429.552 297.919 429.804C297.415 430.047 296.827 430.168 296.155 430.168ZM302.03 433.08L303.57 429.72L300.588 423.056H301.862L304.158 428.46L306.594 423.056H307.812L303.262 433.08H302.03Z" fill="black"/>
<path d="M427 148L427 123L377 123L377 148L427 148ZM427 304L427 148L377 148L377 304L427 304Z" fill="#04CBF8"/>
<path d="M402 400L402 304" stroke="#212121" stroke-width="50"/>
<path opacity="0.5" d="M399.317 430V427.9H394.501V426.99L397.903 420.2H399.065L395.747 426.864H399.373V424.078H400.479V426.864H401.907V427.9H400.479V430H399.317ZM404.03 433.08L405.57 429.72L402.588 423.056H403.862L406.158 428.46L408.594 423.056H409.812L405.262 433.08H404.03Z" fill="black"/>
<path d="M529 50L529 25L479 25L479 50L529 50ZM529 267L529 50L479 50L479 267L529 267Z" fill="#04CBF8"/>
<path d="M504 400L504 267" stroke="#212121" stroke-width="50"/>
<path opacity="0.5" d="M500.197 430.168C499.572 430.168 499.007 430.056 498.503 429.832C498.008 429.599 497.607 429.272 497.299 428.852C496.991 428.423 496.8 427.923 496.725 427.354H497.873C497.985 427.895 498.246 428.334 498.657 428.67C499.068 428.997 499.586 429.16 500.211 429.16C500.678 429.16 501.079 429.053 501.415 428.838C501.751 428.623 502.008 428.329 502.185 427.956C502.372 427.583 502.465 427.163 502.465 426.696C502.465 425.968 502.26 425.38 501.849 424.932C501.438 424.484 500.906 424.26 500.253 424.26C499.712 424.26 499.25 424.381 498.867 424.624C498.484 424.867 498.204 425.184 498.027 425.576H496.907L497.747 420.2H502.885V421.222H498.657L498.083 424.204C498.307 423.933 498.615 423.709 499.007 423.532C499.408 423.355 499.866 423.266 500.379 423.266C501.023 423.266 501.583 423.415 502.059 423.714C502.544 424.013 502.922 424.419 503.193 424.932C503.324 425.193 503.422 425.469 503.487 425.758C503.562 426.047 503.599 426.355 503.599 426.682C503.599 427.363 503.454 427.965 503.165 428.488C502.885 429.011 502.488 429.421 501.975 429.72C501.471 430.019 500.878 430.168 500.197 430.168ZM506.03 433.08L507.57 429.72L504.588 423.056H505.862L508.158 428.46L510.594 423.056H511.812L507.262 433.08H506.03Z" fill="black"/>
</g>
<defs>
<clipPath id="clip0_2022_103">
<rect width="560" height="434" fill="white"/>
</clipPath>
</defs>
</svg>
