<svg width="150" height="75" viewBox="0 0 150 75" fill="none" xmlns="http://www.w3.org/2000/svg">
<g clip-path="url(#clip0_48_579)">
<path d="M48.4834 21.6388C45.6064 24.2526 44.5593 30.1752 49.7457 33.6373L70.4364 47.8837L60.4041 24.8171C58.3019 19.3739 52.5508 18.1869 48.4834 21.6388Z" fill="white" fill-opacity="0.15"/>
<path d="M66.2942 10.4239C62.9309 10.4926 57.8806 14.5121 60.1281 20.6499L70.5042 45.2089L74.1503 19.3776C74.994 12.9591 70.1541 9.99618 66.2942 10.4239Z" fill="white" fill-opacity="0.15"/>
<path d="M75.7695 18.3924H77.7315C77.7315 18.3924 78.7793 18.3924 78.9219 18.8884C78.1498 19.5212 76.0483 19.6005 76.3273 22.9805L79.6255 45.2053L89.9307 20.582C92.0386 15.084 87.6142 10.4924 83.6895 10.3521C83.5062 10.3389 83.3222 10.3282 83.1317 10.3282C79.6091 10.3281 75.5723 12.8974 75.7695 18.3924Z" fill="white" fill-opacity="0.15"/>
<path d="M89.5158 25.0262L79.7688 47.8162L100.453 33.4946C105.222 30.1005 104.453 24.6741 101.783 21.9919C100.665 20.7294 98.6101 19.7542 96.4338 19.7542C93.8626 19.7537 91.111 21.1224 89.5158 25.0262Z" fill="white" fill-opacity="0.15"/>
<path d="M98.1375 36.7372L78.7122 50.3544H102.63C107.537 50.3544 110.691 45.2768 109.289 40.6171C108.35 37.6882 105.572 35.3891 102.348 35.3858C100.991 35.3863 99.5516 35.7966 98.1375 36.7372Z" fill="white" fill-opacity="0.15"/>
<path d="M47.926 50.3545H71.4913L52.061 36.7373C47.5722 33.8428 42.5248 35.5365 40.7027 40.3398C39.1581 45.8382 43.0146 50.3545 47.926 50.3545Z" fill="white" fill-opacity="0.15"/>
<path d="M39.076 60.2096C39.076 62.5287 40.9651 66.75 48.1782 66.75C54.8285 66.75 56.9289 63.6875 56.9289 62.2833H51.7803C51.7803 62.2833 51.5358 64.1385 48.6315 64.1385C45.7253 64.1385 44.9394 61.704 44.9394 60.2963C44.9394 58.8939 45.7253 56.5909 48.6315 56.5909C51.5358 56.5909 51.7803 58.2061 51.7803 58.2061H56.9289C56.9289 56.8002 55.3878 53.7809 48.1782 53.7809C40.9651 53.7809 39.076 58.2766 39.076 60.2096Z" fill="white" fill-opacity="0.15"/>
<path d="M93.071 60.2096C93.071 62.5287 94.9621 66.75 102.173 66.75C108.823 66.75 110.924 63.6875 110.924 62.2833H105.779C105.779 62.2833 105.533 64.1385 102.628 64.1385C99.7219 64.1385 98.9352 61.704 98.9352 60.2963C98.9352 58.8939 99.7219 56.5909 102.628 56.5909C105.533 56.5909 105.779 58.2061 105.779 58.2061H110.924C110.924 56.8002 109.385 53.7809 102.173 53.7809C94.9622 53.7809 93.071 58.2766 93.071 60.2096Z" fill="white" fill-opacity="0.15"/>
<path d="M70.9998 53.9974V61.8481L65.008 53.9974H58.2677V66.4323H62.8886V58.4914L68.7755 66.4323H75.621V53.9974H70.9998Z" fill="white" fill-opacity="0.15"/>
<path d="M85.8073 63.4616V63.478H81.9571V61.1947H85.8073V61.2022C86.6294 61.2022 87.2938 61.7093 87.2938 62.3337C87.2938 62.9566 86.6294 63.4616 85.8073 63.4616ZM81.9924 56.4159H85.7023V56.4211C86.3309 56.4211 86.8406 56.8362 86.8406 57.347C86.8406 57.8597 86.3309 58.2711 85.7023 58.2711V58.2767H81.9924V56.4159ZM89.5888 59.8214C90.43 59.8214 92.1889 58.8414 92.1889 56.9428C92.1889 54.2392 87.1725 53.9974 86.403 53.9974H77.1604V66.4323H86.403C90.8483 66.4323 92.634 65.0229 92.634 62.6694C92.634 60.3159 89.5888 59.8214 89.5888 59.8214Z" fill="white" fill-opacity="0.15"/>
</g>
<defs>
<clipPath id="clip0_48_579">
<rect width="72" height="57.75" fill="white" transform="translate(39 9)"/>
</clipPath>
</defs>
</svg>
