<svg width="150" height="75" viewBox="0 0 150 75" fill="none" xmlns="http://www.w3.org/2000/svg">
<g clip-path="url(#clip0_48_592)">
<path d="M49.5713 44.9175H37.965V58.48H26.15V16.5212H51.4L52.1775 27.9962H38.05V33.4662H49.5713V44.9175ZM98.2588 36.7875L85.855 58.445L98.5725 58.4387L104.638 47.8325L110.763 58.42H123.838L111.213 36.65L122.695 16.58H110.05L104.796 25.6175L99.64 16.58H86.5475L98.2588 36.7875ZM51.8838 37.5525C51.8838 26.325 60.8375 17.175 71.9088 17.175C82.98 17.175 91.9063 26.325 91.9063 37.5712C91.9063 48.8175 82.9063 57.9612 71.9088 57.9612C60.9113 57.9612 51.8838 48.8375 51.8838 37.5525ZM75.4713 45.9312V29.1812C75.4515 28.2374 75.0717 27.3368 74.4097 26.6639C73.7476 25.9909 72.8534 25.5964 71.91 25.5612C70.9874 25.6103 70.1195 26.0146 69.4884 26.6895C68.8574 27.3644 68.5121 28.2574 68.525 29.1812V45.9C68.5063 47.79 70.02 49.3375 71.91 49.3625C72.8338 49.3757 73.7255 49.0243 74.3921 48.3847C75.0587 47.745 75.4464 46.8685 75.4713 45.945V45.9312Z" fill="white" fill-opacity="0.15"/>
</g>
<defs>
<clipPath id="clip0_48_592">
<rect width="150" height="75" fill="white"/>
</clipPath>
</defs>
</svg>
