<svg width="180" height="40" viewBox="0 0 180 40" fill="none" xmlns="http://www.w3.org/2000/svg">
<rect width="180" height="40" rx="20" fill="#04CBF8"/>
<g clip-path="url(#clip0_48_557)">
<path d="M34.3039 18.9727L30.7882 22.0063L31.8593 26.543C31.9184 26.7893 31.9032 27.0475 31.8156 27.2852C31.728 27.5228 31.5719 27.7291 31.3671 27.8781C31.1623 28.0271 30.9179 28.112 30.6648 28.1222C30.4118 28.1323 30.1614 28.0673 29.9453 27.9352L26 25.5071L22.0523 27.9352C21.8362 28.0665 21.5861 28.131 21.3335 28.1204C21.0809 28.1099 20.837 28.0249 20.6326 27.876C20.4282 27.7272 20.2724 27.5212 20.1849 27.284C20.0973 27.0467 20.0819 26.7889 20.1406 26.543L21.2156 22.0063L17.7 18.9727C17.5088 18.8075 17.3705 18.5896 17.3024 18.3462C17.2344 18.1029 17.2395 17.8449 17.3172 17.6045C17.3948 17.364 17.5416 17.1518 17.7392 16.9943C17.9368 16.8367 18.1764 16.7409 18.4281 16.7188L23.0375 16.3469L24.8156 12.0438C24.9118 11.8093 25.0756 11.6087 25.2862 11.4675C25.4967 11.3263 25.7445 11.2509 25.998 11.2509C26.2515 11.2509 26.4993 11.3263 26.7098 11.4675C26.9204 11.6087 27.0842 11.8093 27.1804 12.0438L28.9578 16.3469L33.5671 16.7188C33.8193 16.7401 34.0596 16.8354 34.2579 16.9927C34.4562 17.15 34.6037 17.3623 34.6819 17.603C34.76 17.8438 34.7654 18.1022 34.6973 18.346C34.6292 18.5898 34.4907 18.8081 34.2992 18.9735L34.3039 18.9727Z" fill="#212121"/>
</g>
<g clip-path="url(#clip1_48_557)">
<path d="M66.3039 18.9727L62.7882 22.0063L63.8593 26.543C63.9184 26.7893 63.9032 27.0475 63.8156 27.2852C63.728 27.5228 63.5719 27.7291 63.3671 27.8781C63.1623 28.0271 62.9179 28.112 62.6648 28.1222C62.4118 28.1323 62.1614 28.0673 61.9453 27.9352L58 25.5071L54.0523 27.9352C53.8362 28.0665 53.5861 28.131 53.3335 28.1204C53.0809 28.1099 52.837 28.0249 52.6326 27.876C52.4282 27.7272 52.2724 27.5212 52.1849 27.284C52.0973 27.0467 52.0819 26.7889 52.1406 26.543L53.2156 22.0063L49.7 18.9727C49.5088 18.8075 49.3705 18.5896 49.3024 18.3462C49.2344 18.1029 49.2395 17.8449 49.3172 17.6045C49.3948 17.364 49.5416 17.1518 49.7392 16.9943C49.9368 16.8367 50.1764 16.7409 50.4281 16.7188L55.0375 16.3469L56.8156 12.0438C56.9118 11.8093 57.0756 11.6087 57.2862 11.4675C57.4967 11.3263 57.7445 11.2509 57.998 11.2509C58.2515 11.2509 58.4993 11.3263 58.7098 11.4675C58.9204 11.6087 59.0842 11.8093 59.1804 12.0438L60.9578 16.3469L65.5671 16.7188C65.8193 16.7401 66.0596 16.8354 66.2579 16.9927C66.4562 17.15 66.6037 17.3623 66.6819 17.603C66.76 17.8438 66.7654 18.1022 66.6973 18.346C66.6292 18.5898 66.4907 18.8081 66.2992 18.9735L66.3039 18.9727Z" fill="#212121"/>
</g>
<g clip-path="url(#clip2_48_557)">
<path d="M98.3039 18.9727L94.7882 22.0063L95.8593 26.543C95.9184 26.7893 95.9032 27.0475 95.8156 27.2852C95.728 27.5228 95.5719 27.7291 95.3671 27.8781C95.1623 28.0271 94.9179 28.112 94.6648 28.1222C94.4118 28.1323 94.1614 28.0673 93.9453 27.9352L90 25.5071L86.0523 27.9352C85.8362 28.0665 85.5861 28.131 85.3335 28.1204C85.0809 28.1099 84.837 28.0249 84.6326 27.876C84.4282 27.7272 84.2724 27.5212 84.1849 27.284C84.0973 27.0467 84.0819 26.7889 84.1406 26.543L85.2156 22.0063L81.7 18.9727C81.5088 18.8075 81.3705 18.5896 81.3024 18.3462C81.2344 18.1029 81.2395 17.8449 81.3172 17.6045C81.3948 17.364 81.5416 17.1518 81.7392 16.9943C81.9368 16.8367 82.1764 16.7409 82.4281 16.7188L87.0375 16.3469L88.8156 12.0438C88.9118 11.8093 89.0756 11.6087 89.2862 11.4675C89.4967 11.3263 89.7445 11.2509 89.998 11.2509C90.2515 11.2509 90.4993 11.3263 90.7098 11.4675C90.9204 11.6087 91.0842 11.8093 91.1804 12.0438L92.9578 16.3469L97.5671 16.7188C97.8193 16.7401 98.0596 16.8354 98.2579 16.9927C98.4562 17.15 98.6037 17.3623 98.6819 17.603C98.76 17.8438 98.7654 18.1022 98.6973 18.346C98.6292 18.5898 98.4907 18.8081 98.2992 18.9735L98.3039 18.9727Z" fill="#212121"/>
</g>
<g clip-path="url(#clip3_48_557)">
<path d="M130.304 18.9727L126.788 22.0063L127.859 26.543C127.918 26.7893 127.903 27.0475 127.816 27.2852C127.728 27.5228 127.572 27.7291 127.367 27.8781C127.162 28.0271 126.918 28.112 126.665 28.1222C126.412 28.1323 126.161 28.0673 125.945 27.9352L122 25.5071L118.052 27.9352C117.836 28.0665 117.586 28.131 117.333 28.1204C117.081 28.1099 116.837 28.0249 116.633 27.876C116.428 27.7272 116.272 27.5212 116.185 27.284C116.097 27.0467 116.082 26.7889 116.141 26.543L117.216 22.0063L113.7 18.9727C113.509 18.8075 113.371 18.5896 113.302 18.3462C113.234 18.1029 113.239 17.8449 113.317 17.6045C113.395 17.364 113.542 17.1518 113.739 16.9943C113.937 16.8367 114.176 16.7409 114.428 16.7188L119.037 16.3469L120.816 12.0438C120.912 11.8093 121.076 11.6087 121.286 11.4675C121.497 11.3263 121.744 11.2509 121.998 11.2509C122.251 11.2509 122.499 11.3263 122.71 11.4675C122.92 11.6087 123.084 11.8093 123.18 12.0438L124.958 16.3469L129.567 16.7188C129.819 16.7401 130.06 16.8354 130.258 16.9927C130.456 17.15 130.604 17.3623 130.682 17.603C130.76 17.8438 130.765 18.1022 130.697 18.346C130.629 18.5898 130.491 18.8081 130.299 18.9735L130.304 18.9727Z" fill="#212121"/>
</g>
<g clip-path="url(#clip4_48_557)">
<path d="M162.304 18.9727L158.788 22.0063L159.859 26.543C159.918 26.7893 159.903 27.0475 159.816 27.2852C159.728 27.5228 159.572 27.7291 159.367 27.8781C159.162 28.0271 158.918 28.112 158.665 28.1222C158.412 28.1323 158.161 28.0673 157.945 27.9352L154 25.5071L150.052 27.9352C149.836 28.0665 149.586 28.131 149.333 28.1204C149.081 28.1099 148.837 28.0249 148.633 27.876C148.428 27.7272 148.272 27.5212 148.185 27.284C148.097 27.0467 148.082 26.7889 148.141 26.543L149.216 22.0063L145.7 18.9727C145.509 18.8075 145.371 18.5896 145.302 18.3462C145.234 18.1029 145.239 17.8449 145.317 17.6045C145.395 17.364 145.542 17.1518 145.739 16.9943C145.937 16.8367 146.176 16.7409 146.428 16.7188L151.037 16.3469L152.816 12.0438C152.912 11.8093 153.076 11.6087 153.286 11.4675C153.497 11.3263 153.744 11.2509 153.998 11.2509C154.251 11.2509 154.499 11.3263 154.71 11.4675C154.92 11.6087 155.084 11.8093 155.18 12.0438L156.958 16.3469L161.567 16.7188C161.819 16.7401 162.06 16.8354 162.258 16.9927C162.456 17.15 162.604 17.3623 162.682 17.603C162.76 17.8438 162.765 18.1022 162.697 18.346C162.629 18.5898 162.491 18.8081 162.299 18.9735L162.304 18.9727Z" fill="#212121"/>
</g>
<defs>
<clipPath id="clip0_48_557">
<rect width="20" height="20" fill="white" transform="translate(16 10)"/>
</clipPath>
<clipPath id="clip1_48_557">
<rect width="20" height="20" fill="white" transform="translate(48 10)"/>
</clipPath>
<clipPath id="clip2_48_557">
<rect width="20" height="20" fill="white" transform="translate(80 10)"/>
</clipPath>
<clipPath id="clip3_48_557">
<rect width="20" height="20" fill="white" transform="translate(112 10)"/>
</clipPath>
<clipPath id="clip4_48_557">
<rect width="20" height="20" fill="white" transform="translate(144 10)"/>
</clipPath>
</defs>
</svg>
