<svg width="150" height="75" viewBox="0 0 150 75" fill="none" xmlns="http://www.w3.org/2000/svg">
<g clip-path="url(#clip0_48_595)">
<path d="M36.1737 35.5087L35.9321 36.7656H35.89C35.567 36.0353 34.6429 35.0629 32.6711 35.0629C29.4521 35.0629 26.1925 37.5767 25.4692 41.5102C24.826 44.9568 26.5155 47.9986 30.2976 47.9986C31.7062 47.9986 33.3171 47.4324 34.1204 46.2548H34.1626L33.921 47.5527H37.4601L39.6735 35.4677H36.1737V35.5087ZM35.0473 41.5102C34.8058 42.685 33.7202 44.6327 31.4661 44.6327C29.2934 44.6327 28.851 42.6864 29.0505 41.5895C29.292 40.2108 30.5391 38.467 32.5896 38.467C34.6021 38.467 35.2861 40.0891 35.0445 41.5102H35.0473ZM41.7268 35.5087H45.0665L44.8249 36.7656H44.8671C45.3094 36.1995 46.1142 35.0629 48.2068 35.0629L47.5635 38.7147C45.874 38.7572 44.6143 39.0799 44.3446 40.9454L43.0975 47.598H39.446L41.7268 35.5087ZM50.6196 30.7642H54.243L52.5534 39.8881H52.6335L56.7765 35.5087H61.001L55.4887 40.8209L58.6669 47.5938H54.6025L52.2684 41.7537H52.2403L51.1532 47.5938H47.572L50.6196 30.7642ZM66.7704 35.0629C63.147 35.0629 59.8887 38.2264 59.2848 41.5923C58.6416 45.1592 61.0151 48 64.4756 48C65.7629 47.994 67.021 47.6136 68.099 46.9044C69.2253 46.2151 70.2716 45.1606 71.1185 43.823H67.4572C66.8533 44.4713 66.1693 44.9582 65.0416 44.9582C63.6329 44.9582 62.626 44.1061 62.654 42.6878H71.6423C71.7631 42.4048 71.8039 42.2009 71.8839 41.7537C72.5679 38.0225 70.436 35.0629 66.7704 35.0629ZM63.147 40.2151C63.4279 39.4847 64.3941 38.1485 66.2859 38.1485C68.1369 38.1485 68.62 39.4861 68.62 40.2151H63.147ZM20.1605 47.5938H23.7417V30.75H20.6829L14.3251 40.3184H14.283V30.75H11.2255L0 47.5938H4.34528L10.6624 38.0254H10.7045V47.5938H13.8027L20.0804 38.0254H20.1605V47.5938ZM81 35.5087H78.7473L79.3905 31.9418H76.2517L76.0101 33.3204C75.7292 34.9015 74.763 35.387 73.4344 35.5101H73.3923L72.8305 38.2278H74.6001L72.8698 47.5697H76.4511L78.1813 38.2278H80.4747L81 35.5087Z" fill="white" fill-opacity="0.15"/>
<path d="M137.034 43.1062C135.862 45.7901 133.03 47.9614 129.794 47.9614C126.151 47.9614 123.847 45.159 124.535 41.6457C125.181 38.1737 128.46 35.37 132.1 35.37C135.295 35.37 137.465 37.4614 137.521 40.3299H133.879C133.636 39.5005 133.111 38.6725 131.573 38.6725C129.874 38.5939 128.458 39.9745 128.135 41.6347C127.81 43.3321 128.7 44.6341 130.441 44.6341C131.937 44.6341 132.841 43.8047 133.353 43.0552H137.034V43.1062ZM107.101 27L100.104 31.1843H102.086L95.7354 40.498H95.6549V31.1843H92.5388L86.1851 40.4994H86.1428V31.1857H82.5V47.5812H85.6557L92.0065 38.2674H92.0489V47.5812H95.1636L106.41 31.1857H108.189L107.101 27ZM113.978 47.566H110.419L110.662 46.3026H110.62C109.77 47.4461 108.191 48 106.777 48C102.933 48 101.276 45.0378 101.922 41.6843C102.651 37.8541 105.968 35.4085 109.163 35.4085C111.145 35.4085 112.076 36.3565 112.399 37.066H112.441L112.684 35.8425H116.242L113.978 47.566ZM107.909 44.6865C110.134 44.6865 111.267 42.792 111.509 41.6471C111.752 40.228 111.065 38.6849 109.041 38.6849C106.98 38.6849 105.723 40.3823 105.483 41.7242C105.241 42.8292 105.726 44.6865 107.912 44.6865H107.909ZM125.262 35.8053H122.997L123.644 32.3334H120.488L120.245 33.6753C119.963 35.2143 118.991 35.6869 117.656 35.8067H117.613L117.088 38.452H118.867L117.128 47.5453H120.728L122.467 38.452H124.773L125.262 35.8053ZM140.431 31.1871H144.032L142.939 37.0288H142.981C143.749 35.9238 144.803 35.3713 146.38 35.3713C147.512 35.3713 148.808 35.8053 149.416 36.6733C150.184 37.8169 150.103 38.8447 149.698 40.9761L148.444 47.5288H144.844L146.058 41.1359C146.179 40.5848 146.503 38.6491 144.604 38.6491C142.58 38.6491 142.257 40.4264 142.136 41.0188L140.882 47.5316H137.324L140.431 31.1871Z" fill="white" fill-opacity="0.15"/>
</g>
<defs>
<clipPath id="clip0_48_595">
<rect width="150" height="75" fill="white"/>
</clipPath>
</defs>
</svg>
