<svg width="150" height="75" viewBox="0 0 150 75" fill="none" xmlns="http://www.w3.org/2000/svg">
<g clip-path="url(#clip0_48_628)">
<path d="M52.8041 18.6321C50.4364 20.7792 49.5747 25.6442 53.8428 28.4882L70.8694 40.1909L62.6137 21.2428C60.8838 16.7715 56.1512 15.7965 52.8041 18.6321Z" fill="white" fill-opacity="0.15"/>
<path d="M67.4607 9.41957C64.693 9.47598 60.5372 12.7778 62.3867 17.8197L70.9251 37.9934L73.9256 16.7746C74.6199 11.5021 70.6371 9.06826 67.4607 9.41957Z" fill="white" fill-opacity="0.15"/>
<path d="M75.2583 15.9654H76.8728C76.8728 15.9654 77.735 15.9654 77.8523 16.3728C77.217 16.8926 75.4874 16.9577 75.717 19.7343L78.4314 37.9907L86.9116 17.764C88.6462 13.2477 85.0052 9.476 81.7754 9.36068C81.6247 9.34979 81.4732 9.341 81.3167 9.341C78.4177 9.3409 75.0957 11.4515 75.2583 15.9654Z" fill="white" fill-opacity="0.15"/>
<path d="M86.5702 21.4146L78.5491 40.1352L95.571 28.3709C99.4947 25.5827 98.8617 21.1252 96.6654 18.922C95.7447 17.885 94.0541 17.0839 92.263 17.0839C90.1473 17.0836 87.8828 18.2079 86.5702 21.4146Z" fill="white" fill-opacity="0.15"/>
<path d="M93.6652 31.0347L77.6796 42.2205H97.3622C101.4 42.2205 103.995 38.0492 102.842 34.2216C102.069 31.8158 99.7833 29.9272 97.13 29.9244C96.0132 29.925 94.8288 30.2619 93.6652 31.0347Z" fill="white" fill-opacity="0.15"/>
<path d="M52.3454 42.2205H71.7376L55.7482 31.0346C52.0544 28.657 47.9006 30.0482 46.4011 33.9938C45.1301 38.5105 48.3036 42.2205 52.3454 42.2205Z" fill="white" fill-opacity="0.15"/>
<path d="M73.8213 57.525H77.4188C78.2457 57.5771 79.7117 58.3005 79.7117 60.0135C79.7117 61.8052 78.1903 62.5281 77.366 62.6098H73.8213V57.525ZM73.7665 49.5484H76.7276C77.7397 49.6031 78.9366 50.3524 78.9366 51.7435C78.9366 53.1081 78.0317 54.0175 76.861 54.1796H73.7665V49.5484ZM69.7181 46.2289V65.9259H79.2581C81.5224 65.9259 84.2141 63.6523 84.2141 60.6815C84.2141 57.5775 82.1899 56.0531 80.9092 55.4371C80.9092 55.4371 83.2543 54.0724 83.1501 51.1278C83.0434 47.1667 79.3909 46.2289 78.1387 46.2289H69.7181Z" fill="white" fill-opacity="0.15"/>
<path d="M55.0858 65.9259V54.5811L67.451 66.6752V46.229H63.2959V57.2836L50.9277 45.428V65.9259H55.0858Z" fill="white" fill-opacity="0.15"/>
<path d="M84.8822 55.8641C84.9865 62.093 89.4539 66.75 95.1971 66.75C96.5587 66.75 97.9933 66.4918 99.4594 65.9259V61.9125C98.2975 62.6238 97.0046 62.9668 95.7378 62.9668C92.2623 62.9668 88.983 60.3904 89.1187 55.7042C89.3529 51.9028 92.4593 49.278 95.8071 49.278C97.0331 49.278 98.2941 49.6318 99.4594 50.4048V46.499C98.1006 45.9471 96.7499 45.7004 95.4488 45.7004C89.7201 45.7003 84.9922 50.5413 84.8822 55.8641Z" fill="white" fill-opacity="0.15"/>
</g>
<defs>
<clipPath id="clip0_48_628">
<rect width="59.25" height="58.5" fill="white" transform="translate(45 8.25)"/>
</clipPath>
</defs>
</svg>
