<svg width="60" height="60" viewBox="0 0 60 60" fill="none" xmlns="http://www.w3.org/2000/svg">
<rect width="60" height="60" rx="30" fill="#04CBF8"/>
<path d="M17 35.3334H19M25 16.6667V18.6667M43.6667 24.6667H41.6667M35.6667 43.3334V41.3334M29.5791 24.0877L24.4209 29.2458C24.1569 29.5098 24.0249 29.6419 23.9754 29.7941C23.9319 29.928 23.9319 30.0722 23.9754 30.2061C24.0249 30.3583 24.1569 30.4903 24.4209 30.7543L29.5791 35.9125C29.8431 36.1765 29.9751 36.3085 30.1273 36.358C30.2612 36.4015 30.4054 36.4015 30.5393 36.358C30.6916 36.3085 30.8236 36.1765 31.0876 35.9125L36.2458 30.7543C36.5098 30.4903 36.6418 30.3583 36.6912 30.2061C36.7347 30.0722 36.7347 29.928 36.6912 29.7941C36.6418 29.6419 36.5098 29.5098 36.2458 29.2458L31.0876 24.0877C30.8236 23.8237 30.6916 23.6916 30.5393 23.6422C30.4054 23.5987 30.2612 23.5987 30.1273 23.6422C29.9751 23.6916 29.8431 23.8237 29.5791 24.0877Z" stroke="white" stroke-width="2" stroke-linecap="round" stroke-linejoin="round"/>
</svg>
