<svg width="60" height="60" viewBox="0 0 60 60" fill="none" xmlns="http://www.w3.org/2000/svg">
<rect width="60" height="60" rx="30" fill="#212121"/>
<path d="M16.6666 16.6667L19.3333 19.3334M43.3333 16.6667L40.6666 19.3334M43.3333 43.3334L40.6666 40.6667M16.6666 43.3334L19.3333 40.6667M16.6666 35.3334H18.6666M24.6666 16.6667V18.6667M43.3333 24.6667H41.3333M35.3333 43.3334V41.3334M38 35.3334H42.6666M35.3333 16.6667V22.0001M16.6666 24.6667H22M24.6666 43.3334V38.0001M29.2457 24.0877L24.0875 29.2458C23.8235 29.5098 23.6915 29.6419 23.6421 29.7941C23.5986 29.928 23.5986 30.0722 23.6421 30.2061C23.6915 30.3583 23.8235 30.4903 24.0875 30.7543L29.2457 35.9125C29.5097 36.1765 29.6417 36.3085 29.7939 36.358C29.9278 36.4015 30.0721 36.4015 30.206 36.358C30.3582 36.3085 30.4902 36.1765 30.7542 35.9125L35.9124 30.7543C36.1764 30.4903 36.3084 30.3583 36.3579 30.2061C36.4014 30.0722 36.4014 29.928 36.3579 29.7941C36.3084 29.6419 36.1764 29.5098 35.9124 29.2458L30.7542 24.0877C30.4902 23.8237 30.3582 23.6916 30.206 23.6422C30.0721 23.5987 29.9278 23.5987 29.7939 23.6422C29.6417 23.6916 29.5097 23.8237 29.2457 24.0877Z" stroke="white" stroke-width="2" stroke-linecap="round" stroke-linejoin="round"/>
</svg>
