<svg width="122" height="18" viewBox="0 0 122 18" fill="none" xmlns="http://www.w3.org/2000/svg">
<g clip-path="url(#clip0_63_269)">
<path d="M16.4735 8.07532L13.3095 10.8056L14.2735 14.8886C14.3266 15.1103 14.3129 15.3427 14.2341 15.5566C14.1552 15.7704 14.0148 15.9561 13.8304 16.0902C13.6461 16.2243 13.4262 16.3007 13.1984 16.3099C12.9706 16.319 12.7453 16.2604 12.5508 16.1416L9.00002 13.9563L5.44713 16.1416C5.25266 16.2598 5.02757 16.3178 4.80021 16.3083C4.57284 16.2988 4.35336 16.2223 4.16941 16.0883C3.98545 15.9543 3.84525 15.769 3.76645 15.5555C3.68765 15.342 3.67378 15.11 3.72658 14.8886L4.69408 10.8056L1.53002 8.07532C1.35796 7.92662 1.23353 7.73052 1.17225 7.51152C1.11098 7.29252 1.11559 7.06032 1.1855 6.84392C1.2554 6.62752 1.38752 6.43651 1.56533 6.29474C1.74315 6.15298 1.95879 6.06675 2.18533 6.04681L6.33377 5.71212L7.93408 1.83931C8.0207 1.62824 8.16813 1.4477 8.35762 1.32064C8.54711 1.19358 8.77011 1.12573 8.99826 1.12573C9.22641 1.12573 9.4494 1.19358 9.6389 1.32064C9.82839 1.4477 9.97582 1.62824 10.0624 1.83931L11.662 5.71212L15.8105 6.04681C16.0375 6.066 16.2537 6.15176 16.4322 6.29333C16.6107 6.4349 16.7434 6.62598 16.8137 6.84264C16.8841 7.0593 16.8889 7.29191 16.8276 7.51131C16.7664 7.73071 16.6417 7.92715 16.4693 8.07603L16.4735 8.07532Z" fill="#E0F401"/>
</g>
<g clip-path="url(#clip1_63_269)">
<path d="M42.4735 8.07532L39.3095 10.8056L40.2735 14.8886C40.3266 15.1103 40.3129 15.3427 40.2341 15.5566C40.1552 15.7704 40.0148 15.9561 39.8304 16.0902C39.6461 16.2243 39.4262 16.3007 39.1984 16.3099C38.9706 16.319 38.7453 16.2604 38.5508 16.1416L35 13.9563L31.4471 16.1416C31.2527 16.2598 31.0276 16.3178 30.8002 16.3083C30.5728 16.2988 30.3534 16.2223 30.1694 16.0883C29.9855 15.9543 29.8453 15.769 29.7664 15.5555C29.6876 15.342 29.6738 15.11 29.7266 14.8886L30.6941 10.8056L27.53 8.07532C27.358 7.92662 27.2335 7.73052 27.1723 7.51152C27.111 7.29252 27.1156 7.06032 27.1855 6.84392C27.2554 6.62752 27.3875 6.43651 27.5653 6.29474C27.7432 6.15298 27.9588 6.06675 28.1853 6.04681L32.3338 5.71212L33.9341 1.83931C34.0207 1.62824 34.1681 1.4477 34.3576 1.32064C34.5471 1.19358 34.7701 1.12573 34.9983 1.12573C35.2264 1.12573 35.4494 1.19358 35.6389 1.32064C35.8284 1.4477 35.9758 1.62824 36.0624 1.83931L37.662 5.71212L41.8105 6.04681C42.0375 6.066 42.2537 6.15176 42.4322 6.29333C42.6107 6.4349 42.7434 6.62598 42.8137 6.84264C42.8841 7.0593 42.8889 7.29191 42.8276 7.51131C42.7664 7.73071 42.6417 7.92715 42.4693 8.07603L42.4735 8.07532Z" fill="#E0F401"/>
</g>
<g clip-path="url(#clip2_63_269)">
<path d="M68.4735 8.07532L65.3094 10.8056L66.2734 14.8886C66.3266 15.1103 66.3129 15.3427 66.234 15.5566C66.1552 15.7704 66.0147 15.9561 65.8304 16.0902C65.646 16.2243 65.4261 16.3007 65.1983 16.3099C64.9706 16.319 64.7452 16.2604 64.5507 16.1416L61 13.9563L57.4471 16.1416C57.2526 16.2598 57.0275 16.3178 56.8001 16.3083C56.5728 16.2988 56.3533 16.2223 56.1693 16.0883C55.9854 15.9543 55.8452 15.769 55.7664 15.5555C55.6876 15.342 55.6737 15.11 55.7265 14.8886L56.694 10.8056L53.53 8.07532C53.3579 7.92662 53.2335 7.73052 53.1722 7.51152C53.1109 7.29252 53.1155 7.06032 53.1854 6.84392C53.2553 6.62752 53.3875 6.43651 53.5653 6.29474C53.7431 6.15298 53.9587 6.06675 54.1853 6.04681L58.3337 5.71212L59.934 1.83931C60.0206 1.62824 60.1681 1.4477 60.3576 1.32064C60.5471 1.19358 60.77 1.12573 60.9982 1.12573C61.2263 1.12573 61.4493 1.19358 61.6388 1.32064C61.8283 1.4477 61.9758 1.62824 62.0624 1.83931L63.662 5.71212L67.8104 6.04681C68.0374 6.066 68.2537 6.15176 68.4321 6.29333C68.6106 6.4349 68.7433 6.62598 68.8137 6.84264C68.884 7.0593 68.8889 7.29191 68.8276 7.51131C68.7663 7.73071 68.6417 7.92715 68.4693 8.07603L68.4735 8.07532Z" fill="#E0F401"/>
</g>
<g clip-path="url(#clip3_63_269)">
<path d="M94.4735 8.07532L91.3094 10.8056L92.2734 14.8886C92.3266 15.1103 92.3129 15.3427 92.234 15.5566C92.1552 15.7704 92.0147 15.9561 91.8304 16.0902C91.646 16.2243 91.4261 16.3007 91.1983 16.3099C90.9706 16.319 90.7452 16.2604 90.5507 16.1416L87 13.9563L83.4471 16.1416C83.2526 16.2598 83.0275 16.3178 82.8001 16.3083C82.5728 16.2988 82.3533 16.2223 82.1693 16.0883C81.9854 15.9543 81.8452 15.769 81.7664 15.5555C81.6876 15.342 81.6737 15.11 81.7265 14.8886L82.694 10.8056L79.53 8.07532C79.3579 7.92662 79.2335 7.73052 79.1722 7.51152C79.1109 7.29252 79.1155 7.06032 79.1854 6.84392C79.2553 6.62752 79.3875 6.43651 79.5653 6.29474C79.7431 6.15298 79.9587 6.06675 80.1853 6.04681L84.3337 5.71212L85.934 1.83931C86.0206 1.62824 86.1681 1.4477 86.3576 1.32064C86.5471 1.19358 86.77 1.12573 86.9982 1.12573C87.2263 1.12573 87.4493 1.19358 87.6388 1.32064C87.8283 1.4477 87.9758 1.62824 88.0624 1.83931L89.662 5.71212L93.8104 6.04681C94.0374 6.066 94.2537 6.15176 94.4321 6.29333C94.6106 6.4349 94.7433 6.62598 94.8137 6.84264C94.884 7.0593 94.8889 7.29191 94.8276 7.51131C94.7663 7.73071 94.6417 7.92715 94.4693 8.07603L94.4735 8.07532Z" fill="#E0F401"/>
</g>
<g clip-path="url(#clip4_63_269)">
<path d="M120.473 8.07532L117.309 10.8056L118.273 14.8886C118.327 15.1103 118.313 15.3427 118.234 15.5566C118.155 15.7704 118.015 15.9561 117.83 16.0902C117.646 16.2243 117.426 16.3007 117.198 16.3099C116.971 16.319 116.745 16.2604 116.551 16.1416L113 13.9563L109.447 16.1416C109.253 16.2598 109.028 16.3178 108.8 16.3083C108.573 16.2988 108.353 16.2223 108.169 16.0883C107.985 15.9543 107.845 15.769 107.766 15.5555C107.688 15.342 107.674 15.11 107.727 14.8886L108.694 10.8056L105.53 8.07532C105.358 7.92662 105.233 7.73052 105.172 7.51152C105.111 7.29252 105.116 7.06032 105.185 6.84392C105.255 6.62752 105.387 6.43651 105.565 6.29474C105.743 6.15298 105.959 6.06675 106.185 6.04681L110.334 5.71212L111.934 1.83931C112.021 1.62824 112.168 1.4477 112.358 1.32064C112.547 1.19358 112.77 1.12573 112.998 1.12573C113.226 1.12573 113.449 1.19358 113.639 1.32064C113.828 1.4477 113.976 1.62824 114.062 1.83931L115.662 5.71212L119.81 6.04681C120.037 6.066 120.254 6.15176 120.432 6.29333C120.611 6.4349 120.743 6.62598 120.814 6.84264C120.884 7.0593 120.889 7.29191 120.828 7.51131C120.766 7.73071 120.642 7.92715 120.469 8.07603L120.473 8.07532Z" fill="#E0F401"/>
</g>
<defs>
<clipPath id="clip0_63_269">
<rect width="18" height="18" fill="white"/>
</clipPath>
<clipPath id="clip1_63_269">
<rect width="18" height="18" fill="white" transform="translate(26)"/>
</clipPath>
<clipPath id="clip2_63_269">
<rect width="18" height="18" fill="white" transform="translate(52)"/>
</clipPath>
<clipPath id="clip3_63_269">
<rect width="18" height="18" fill="white" transform="translate(78)"/>
</clipPath>
<clipPath id="clip4_63_269">
<rect width="18" height="18" fill="white" transform="translate(104)"/>
</clipPath>
</defs>
</svg>
