<svg width="150" height="75" viewBox="0 0 150 75" fill="none" xmlns="http://www.w3.org/2000/svg">
<g clip-path="url(#clip0_48_599)">
<path d="M48.6532 65.4315C64.1328 65.4315 76.6815 52.8828 76.6815 37.4032C76.6815 21.9237 64.1328 9.375 48.6532 9.375C33.1737 9.375 20.625 21.9237 20.625 37.4032C20.625 52.8828 33.1737 65.4315 48.6532 65.4315Z" fill="white" fill-opacity="0.15"/>
<path d="M89.3093 15.5963V21.2468C89.3093 22.5398 89.2568 23.82 88.257 24.7928C87.417 25.6193 86.097 25.9118 84.9248 25.9118C83.7525 25.9118 82.4325 25.6185 81.5933 24.7928C80.5935 23.82 80.5403 22.5398 80.5403 21.2468V15.5963H83.1525V20.8875C83.1525 22.194 83.2463 23.6198 84.9248 23.6198C86.604 23.6198 86.6978 22.1948 86.6978 20.8875V15.5963H89.3093Z" fill="white" fill-opacity="0.15"/>
<path d="M96.477 18.1815C95.997 17.7817 95.3835 17.5147 94.7437 17.5147C94.2637 17.5147 93.624 17.7945 93.624 18.354C93.624 18.9405 94.3305 19.167 94.7835 19.3132L95.4502 19.5142C96.8497 19.9275 97.929 20.6332 97.929 22.2592C97.929 23.259 97.6897 24.285 96.8902 24.9645C96.1035 25.6312 95.0505 25.911 94.0372 25.911C92.7712 25.911 91.5315 25.485 90.5055 24.765L91.6252 22.659C92.2777 23.2327 93.0502 23.6992 93.9442 23.6992C94.5562 23.6992 95.2102 23.3925 95.2102 22.6852C95.2102 21.9525 94.1842 21.6997 93.624 21.5392C91.9845 21.0727 90.9045 20.6467 90.9045 18.7012C90.9045 16.6612 92.358 15.3285 94.3702 15.3285C95.3835 15.3285 96.6225 15.6487 97.515 16.1557L96.477 18.1815Z" fill="white" fill-opacity="0.15"/>
<path d="M101.725 23.8988L101.032 25.6448H98.259L102.125 15.5963H104.977L108.762 25.6448H105.977L105.323 23.8988H101.725ZM103.551 18.7013H103.524L102.445 21.8993H104.617L103.551 18.7013Z" fill="white" fill-opacity="0.15"/>
<path d="M85.9635 37.5112H83.352V29.6737H81.192V27.4612H88.1228V29.6737H85.9635V37.5112Z" fill="white" fill-opacity="0.15"/>
<path d="M99.6751 32.2995C99.6751 35.5515 97.3433 37.8443 94.1176 37.8443C90.8918 37.8443 88.5593 35.5515 88.5593 32.2995C88.5593 29.2598 91.2256 27.1275 94.1176 27.1275C97.0096 27.1275 99.6751 29.2605 99.6751 32.2995ZM91.2788 32.313C91.2788 34.0463 92.5576 35.3115 94.1176 35.3115C95.6768 35.3115 96.9563 34.0455 96.9563 32.313C96.9563 30.927 95.6768 29.6603 94.1176 29.6603C92.5576 29.6603 91.2788 30.927 91.2788 32.313Z" fill="white" fill-opacity="0.15"/>
<path d="M100.883 27.4612H104.588C107.387 27.4612 109.693 29.6602 109.693 32.4855C109.693 35.3107 107.374 37.5105 104.588 37.5105H100.883V27.4612ZM103.496 35.298H104.082C105.641 35.298 106.974 34.4452 106.974 32.4855C106.974 30.687 105.788 29.6737 104.108 29.6737H103.496V35.298Z" fill="white" fill-opacity="0.15"/>
<path d="M113.461 35.7652L112.768 37.5105H109.995L113.861 27.4612H116.713L120.498 37.5105H117.713L117.059 35.7652H113.461ZM115.288 30.567H115.261L114.181 33.7665H116.353L115.288 30.567Z" fill="white" fill-opacity="0.15"/>
<path d="M118.603 27.4612H121.735L123.614 30.1935L125.495 27.4612H128.625L124.921 32.6865V37.5112H122.309V32.6865L118.603 27.4612Z" fill="white" fill-opacity="0.15"/>
<path d="M81.918 43.4722L82.6793 41.787C82.6868 41.772 82.6995 41.7607 82.7228 41.7607H82.7468C82.7693 41.7607 82.782 41.7727 82.7903 41.787L83.5455 43.4722C83.5613 43.5045 83.541 43.5375 83.5035 43.5375H83.403C83.3805 43.5375 83.3655 43.5225 83.3595 43.5097L83.175 43.0965H82.2863L82.1033 43.5097C82.098 43.5232 82.0838 43.5375 82.0605 43.5375H81.9608C81.9225 43.5375 81.903 43.5045 81.918 43.4722ZM83.1075 42.9412C82.9845 42.669 82.8645 42.393 82.7415 42.1207H82.7228L82.3568 42.9412H83.1075Z" fill="white" fill-opacity="0.15"/>
<path d="M86.0191 41.7607C86.2718 41.7607 86.4548 41.847 86.6251 41.9932C86.6453 42.0127 86.6476 42.0427 86.6273 42.0637C86.6048 42.0862 86.5786 42.1102 86.5576 42.1335C86.5351 42.159 86.5201 42.156 86.4923 42.1312C86.3648 42.0195 86.1841 41.9355 86.0161 41.9355C85.6216 41.9355 85.3201 42.2655 85.3201 42.654C85.3201 43.0395 85.6208 43.3777 86.0161 43.3777C86.2921 43.3777 86.4676 43.2727 86.4676 43.2727V42.9217H86.1796C86.1518 42.9217 86.1323 42.9015 86.1323 42.876V42.783C86.1323 42.7567 86.1518 42.7365 86.1796 42.7365H86.6123C86.6371 42.7365 86.6573 42.759 86.6573 42.783V43.3567C86.6573 43.3702 86.6476 43.3897 86.6378 43.398C86.6378 43.398 86.3828 43.563 86.0198 43.563C85.5196 43.563 85.1161 43.1647 85.1161 42.6645C85.1153 42.1627 85.5188 41.7607 86.0191 41.7607Z" fill="white" fill-opacity="0.15"/>
<path d="M87.2685 43.4722L88.0298 41.787C88.0373 41.772 88.05 41.7607 88.0733 41.7607H88.098C88.1205 41.7607 88.1325 41.7727 88.1408 41.787L88.8968 43.4722C88.9125 43.5045 88.8915 43.5375 88.854 43.5375H88.7542C88.731 43.5375 88.716 43.5225 88.7108 43.5097L88.5263 43.0965H87.6368L87.4538 43.5097C87.4493 43.5232 87.435 43.5375 87.4118 43.5375H87.3113C87.2745 43.5375 87.2543 43.5045 87.2685 43.4722ZM88.4588 42.9412C88.3358 42.669 88.2158 42.393 88.0928 42.1207H88.0733L87.708 42.9412H88.4588Z" fill="white" fill-opacity="0.15"/>
<path d="M89.6033 41.805C89.6033 41.7795 89.6258 41.76 89.6498 41.76H89.7128L90.8423 43.1655C90.8445 43.1655 90.8445 43.1655 90.8468 43.1655V41.8328C90.8468 41.8073 90.8663 41.7848 90.894 41.7848H90.9818C91.0065 41.7848 91.029 41.8073 91.029 41.8328V43.5165C91.029 43.5413 91.0065 43.5623 90.9818 43.5623H90.9368L89.7878 42.1283H89.7848V43.4895C89.7848 43.5135 89.7653 43.5368 89.7375 43.5368H89.6498C89.6258 43.5368 89.6033 43.5135 89.6033 43.4895V41.805Z" fill="white" fill-opacity="0.15"/>
<path d="M91.974 41.805C91.974 41.7795 91.9965 41.76 92.0212 41.76H92.0835L93.213 43.1655C93.2152 43.1655 93.2152 43.1655 93.2182 43.1655V41.8328C93.2182 41.8073 93.237 41.7848 93.2647 41.7848H93.3525C93.378 41.7848 93.4005 41.8073 93.4005 41.8328V43.5165C93.4005 43.5413 93.378 43.5623 93.3525 43.5623H93.3075L92.1585 42.1283H92.1562V43.4895C92.1562 43.5135 92.136 43.5368 92.1082 43.5368H92.0212C91.9965 43.5368 91.974 43.5135 91.974 43.4895V41.805Z" fill="white" fill-opacity="0.15"/>
<path d="M94.3456 41.8328C94.3456 41.8073 94.3651 41.7848 94.3921 41.7848H95.3783C95.4053 41.7848 95.4256 41.8073 95.4256 41.8328V41.9048C95.4256 41.9303 95.4053 41.9528 95.3783 41.9528H94.5376V42.5633H95.2553C95.2801 42.5633 95.3033 42.585 95.3033 42.6098V42.6825C95.3033 42.7103 95.2801 42.7298 95.2553 42.7298H94.5376V43.3688H95.3783C95.4053 43.3688 95.4256 43.3905 95.4256 43.4153V43.4888C95.4256 43.5128 95.4053 43.536 95.3783 43.536H94.3921C94.3651 43.536 94.3456 43.5128 94.3456 43.4888V41.8328Z" fill="white" fill-opacity="0.15"/>
<path d="M96.5093 41.9528H96.0736C96.0458 41.9528 96.0271 41.9303 96.0271 41.9048V41.8328C96.0271 41.8073 96.0458 41.7848 96.0736 41.7848H97.1348C97.1626 41.7848 97.1821 41.8073 97.1821 41.8328V41.9048C97.1821 41.9303 97.1626 41.9528 97.1348 41.9528H96.6998V43.4895C96.6998 43.5135 96.6773 43.5368 96.6518 43.5368H96.5566C96.5318 43.5368 96.5101 43.5135 96.5101 43.4895L96.5093 41.9528Z" fill="white" fill-opacity="0.15"/>
<path d="M98.2005 41.9528H97.7648C97.737 41.9528 97.7183 41.9303 97.7183 41.9048V41.8328C97.7183 41.8073 97.737 41.7848 97.7648 41.7848H98.826C98.8538 41.7848 98.874 41.8073 98.874 41.8328V41.9048C98.874 41.9303 98.8538 41.9528 98.826 41.9528H98.391V43.4895C98.391 43.5135 98.3685 43.5368 98.3438 43.5368H98.2485C98.223 43.5368 98.2013 43.5135 98.2013 43.4895L98.2005 41.9528Z" fill="white" fill-opacity="0.15"/>
<path d="M101.351 41.7607C101.604 41.7607 101.786 41.847 101.957 41.9932C101.977 42.0127 101.98 42.0427 101.96 42.0637L101.892 42.1312C101.872 42.156 101.852 42.1537 101.827 42.129C101.696 42.0157 101.519 41.9407 101.348 41.9407C100.953 41.9407 100.649 42.2737 100.649 42.6622C100.649 43.0477 100.952 43.38 101.348 43.38C101.567 43.38 101.694 43.2922 101.827 43.1925C101.852 43.173 101.872 43.1752 101.887 43.185L101.962 43.2525C101.982 43.2682 101.978 43.3027 101.96 43.32C101.789 43.485 101.574 43.563 101.351 43.563C100.851 43.563 100.448 43.1647 100.448 42.6645C100.448 42.1627 100.851 41.7607 101.351 41.7607Z" fill="white" fill-opacity="0.15"/>
<path d="M103.541 41.7607C104.042 41.7607 104.443 42.1627 104.443 42.6637C104.443 43.164 104.042 43.5622 103.541 43.5622C103.04 43.5622 102.644 43.164 102.644 42.6637C102.643 42.1627 103.04 41.7607 103.541 41.7607ZM103.541 43.3867C103.939 43.3867 104.268 43.0612 104.268 42.6637C104.268 42.2655 103.94 41.9347 103.541 41.9347C103.145 41.9347 102.818 42.2647 102.818 42.6637C102.818 43.0612 103.144 43.3867 103.541 43.3867Z" fill="white" fill-opacity="0.15"/>
<path d="M105.455 41.7945C105.461 41.775 105.48 41.76 105.501 41.76H105.542C105.558 41.76 105.579 41.772 105.584 41.7863L106.08 43.1655C106.085 43.1655 106.087 43.1655 106.092 43.1655L106.58 41.7863C106.585 41.7713 106.605 41.76 106.623 41.76H106.664C106.682 41.76 106.703 41.775 106.709 41.7945L107.031 43.476C107.039 43.5113 107.024 43.5368 106.986 43.5368H106.886C106.866 43.5368 106.845 43.5188 106.841 43.5015L106.617 42.2123C106.615 42.2123 106.61 42.2123 106.607 42.2123L106.148 43.5338C106.142 43.5488 106.12 43.5615 106.104 43.5615H106.059C106.044 43.5615 106.022 43.548 106.016 43.5338L105.55 42.2123C105.547 42.2123 105.543 42.2123 105.541 42.2123L105.322 43.5015C105.32 43.518 105.298 43.5368 105.278 43.5368H105.176C105.139 43.5368 105.125 43.5113 105.131 43.476L105.455 41.7945Z" fill="white" fill-opacity="0.15"/>
<path d="M107.849 41.8328C107.849 41.8073 107.869 41.7848 107.896 41.7848H108.449C108.757 41.7848 109.01 42.0353 109.01 42.3383C109.01 42.648 108.757 42.9008 108.452 42.9008H108.038V43.4895C108.038 43.5135 108.016 43.5368 107.991 43.5368H107.896C107.869 43.5368 107.849 43.5135 107.849 43.4895V41.8328ZM108.437 42.7155C108.642 42.7155 108.818 42.5483 108.818 42.3323C108.818 42.1298 108.643 41.9745 108.437 41.9745H108.039V42.7148L108.437 42.7155Z" fill="white" fill-opacity="0.15"/>
<path d="M109.459 43.4722L110.22 41.787C110.228 41.772 110.24 41.7607 110.264 41.7607H110.288C110.31 41.7607 110.323 41.7727 110.331 41.787L111.086 43.4722C111.102 43.5045 111.082 43.5375 111.044 43.5375H110.944C110.921 43.5375 110.906 43.5225 110.9 43.5097L110.716 43.0965H109.827L109.644 43.5097C109.639 43.5232 109.625 43.5375 109.601 43.5375H109.502C109.464 43.5375 109.445 43.5045 109.459 43.4722ZM110.648 42.9412C110.525 42.669 110.405 42.393 110.282 42.1207H110.264L109.898 42.9412H110.648Z" fill="white" fill-opacity="0.15"/>
<path d="M111.794 41.805C111.794 41.7795 111.816 41.76 111.841 41.76H111.903L113.033 43.1655C113.036 43.1655 113.036 43.1655 113.038 43.1655V41.8328C113.038 41.8073 113.057 41.7848 113.084 41.7848H113.172C113.198 41.7848 113.219 41.8073 113.219 41.8328V43.5165C113.219 43.5413 113.198 43.5623 113.172 43.5623H113.127L111.978 42.1283H111.976V43.4895C111.976 43.5135 111.956 43.5368 111.929 43.5368H111.841C111.816 43.5368 111.794 43.5135 111.794 43.4895V41.805Z" fill="white" fill-opacity="0.15"/>
<path d="M114.518 42.6938L113.914 41.8583C113.894 41.826 113.914 41.7848 113.954 41.7848H114.071C114.089 41.7848 114.104 41.7983 114.112 41.8073L114.617 42.5063L115.124 41.8073C115.131 41.7975 115.146 41.7848 115.163 41.7848H115.281C115.321 41.7848 115.341 41.826 115.321 41.8583L114.711 42.6915V43.4895C114.711 43.5135 114.689 43.5368 114.664 43.5368H114.566C114.539 43.5368 114.519 43.5135 114.519 43.4895V42.6938H114.518Z" fill="white" fill-opacity="0.15"/>
</g>
<defs>
<clipPath id="clip0_48_599">
<rect width="108.75" height="56.8065" fill="white" transform="translate(20.25 9)"/>
</clipPath>
</defs>
</svg>
